# xmcd
#
# Track frame offsets: 
#        150
#        25800
#        47925
#        69750
#        90450
#        109800
#        135675
#        154200
#        169500
#        183525
#        201150
#        212550
#        230475
#        245550
#        256875
#        269400
#
# Disc length: 3859 seconds
#
# Revision: 0
# Processed by: cddbd v1.5.1PL2 Copyright (c) Steve Scherf et al.
# Submitted via: ExactAudioCopy v0.95b4
#
DISCID=de0f1110
DTITLE=John Denver - Sydney Opera House Live
DYEAR=1999
DGENRE=Country
TTITLE0=Rocky Mountain High
TTITLE1=Today
TTITLE2=Back Home Again
TTITLE3=Fly Away
TTITLE4=Looking For Space
TTITLE5=I Want To Live
TTITLE6=Calypso
TTITLE7=Me And My Uncle
TTITLE8=It's ASin To Tell A Lie
TTITLE9=Moreton Bay
TTITLE10=Grandma's Feather Bed
TTITLE11=Thank God I'm A Country Boy
TTITLE12=Take Me Home, Country Roads
TTITLE13=Band Introduction
TTITLE14=The Eatle And The Hawk
TTITLE15=Annie's Song
EXTD=
EXTT0=
EXTT1=
EXTT2=
EXTT3=
EXTT4=
EXTT5=
EXTT6=
EXTT7=
EXTT8=
EXTT9=
EXTT10=
EXTT11=
EXTT12=
EXTT13=
EXTT14=
EXTT15=
PLAYORDER=
